<?xml version="1.0" encoding="UTF-8"?>
<svg xmlns="http://www.w3.org/2000/svg" version="1.1" viewBox="0 0 48 48">
  <!-- Generator: Adobe Illustrator 28.7.3, SVG Export Plug-In . SVG Version: 1.2.0 Build 164)  -->
  <g>
    <g id="Layer_3_copy">
      <path d="M48,23.01c0-3.63-1.8-7.28-4.69-9.54-2.83-2.21-6.46-2.9-10.23-1.96-4.38,1.09-7.01,5.44-9.57,9.64-2.58,4.24-5.24,8.63-9.47,9.47-3.3.66-5.83.29-7.52-1.09-2.28-1.87-2.53-5.18-2.53-6.51,0-4.17,4.68-7.57,10.43-7.57h1.08l-2.41,2.41,2.83,2.83,7.07-7.07-7.72-7.72-2.83,2.83,2.72,2.72h-.74C6.48,11.44,0,16.63,0,23.01c0,2.37.52,6.76,3.99,9.6,1.88,1.54,4.26,2.32,7.09,2.32,1.17,0,2.42-.13,3.74-.4,5.95-1.19,9.22-6.57,12.11-11.32,2.23-3.67,4.34-7.14,7.12-7.83,3.26-.82,5.5.22,6.79,1.23,1.92,1.5,3.15,4.01,3.15,6.39,0,4.17-4.68,7.56-10.43,7.56h-.89l2.13-2.13-2.83-2.83-7.07,7.07,7.72,7.72,2.83-2.83-2.99-2.99h1.09c7.96,0,14.43-5.19,14.43-11.56Z"/>
    </g>
  </g>
</svg>